# xmcd CD database file
#
# Track frame offsets:
#	150
#	11812
#	24227
#	36538
#	48614
#	60006
#	73754
#	85650
#	97266
#	107780
#	117768
#	127857
#	136811
#	145746
#	158286
#	169414
#	179856
#	185408
#	206467
#	218071
#
# Disc length: 3078 seconds
#
# Revision: 2
# Processed by: cddbd v1.5.1PL0 Copyright (c) Steve Scherf et al.
# Submitted via: CDex 1.51
#
DISCID=170c0414
DTITLE=Sampler - Golden Country Hits CD1
DYEAR=1900
DGENRE=Country
TTITLE0=Willie Nelson - I'll Stay Around
TTITLE1=George Jones - Brothers Of A Bottle
TTITLE2=Jackson Stondeweall - Love Gets All Over Me
TTITLE3=Johnny Paycheck - Song And Dance Man
TTITLE4=Willie Nelson - Touch Me
TTITLE5=Merle Haggard - That's The Way Love Goes
TTITLE6=Porter Wagoner - I'll Start Tomorrow
TTITLE7=D. Williams and E. Harris  - Follow Me Back To Louisville
TTITLE8=Conway Twitty - It's Only Make Believe
TTITLE9=Carl Perkins - Maybelline
TTITLE10=Patsy Cline - Three Cigarrattes In An Ash Tray
TTITLE11=Willie Nelson - Building Heartaches
TTITLE12=Eddie Raven - Thank God For Kids
TTITLE13=Johnny Paycheck - Heavens Almost As Big As Texas
TTITLE14=Gene Watson - You Out Doin'
TTITLE15=Don Williams - Turn Out The Lights
TTITLE16=George Jones - Liberty
TTITLE17=Tanya Tucker - Texas When I Die
TTITLE18=Jackson Stonewall - Ol' Blue Talk
TTITLE19=Mel Tills - In The Middle Of The Night
EXTD=
EXTT0=
EXTT1=
EXTT2=
EXTT3=
EXTT4=
EXTT5=
EXTT6=
EXTT7=
EXTT8=
EXTT9=
EXTT10=
EXTT11=
EXTT12=
EXTT13=
EXTT14=
EXTT15=
EXTT16=
EXTT17=
EXTT18=
EXTT19=
PLAYORDER=
